<svg xmlns="http://www.w3.org/2000/svg" xmlns:xlink="http://www.w3.org/1999/xlink" version="1.1" x="0px" y="0px" viewBox="0 0 512 640" style="enable-background:new 0 0 512 512;" xml:space="preserve"><g><g><g><path d="M120.21,251.12c-11.32,0-22.3-2.22-32.63-6.59c-9.98-4.22-18.95-10.27-26.65-17.97c-7.7-7.7-13.74-16.68-17.96-26.67     c-4.37-10.34-6.59-21.34-6.59-32.67c0-6.66,0.78-13.29,2.33-19.7c1.5-6.24,3.73-12.31,6.62-18.04     c5.67-11.24,13.94-21.23,23.94-28.89c0.71-0.55,1.55-0.83,2.44-0.83c1.25,0,2.41,0.57,3.17,1.56c0.65,0.85,0.93,1.9,0.79,2.96     c-0.13,1.06-0.68,2-1.53,2.65c-18.91,14.52-29.76,36.49-29.76,60.29c0,20.28,7.89,39.35,22.21,53.68s33.37,22.22,53.62,22.22     c20.29,0,39.35-7.89,53.69-22.22c14.32-14.33,22.22-33.39,22.22-53.68c0-20.26-7.9-39.32-22.22-53.66     c-14.35-14.34-33.41-22.24-53.69-22.25c-3.85,0-7.73,0.3-11.51,0.87c-2.15,0.33-4.23-1.21-4.56-3.35     c-0.03-0.2-0.05-0.4-0.05-0.61c0-1.95,1.46-3.65,3.4-3.95c4.18-0.63,8.45-0.96,12.72-0.96c11.33,0,22.33,2.23,32.68,6.6     c9.99,4.23,18.96,10.29,26.66,18c7.71,7.7,13.75,16.68,17.98,26.67c4.37,10.34,6.59,21.32,6.59,32.64     c0,11.34-2.22,22.33-6.59,32.67c-4.23,10-10.27,18.97-17.98,26.67c-7.7,7.7-16.67,13.75-26.67,17.97     C142.54,248.91,131.54,251.12,120.21,251.12z M88.92,97.69c-1.61,0-3.05-0.95-3.68-2.43c-0.42-0.98-0.43-2.07-0.04-3.06     c0.4-0.99,1.16-1.77,2.14-2.19c0.51-0.21,1.03-0.32,1.58-0.32c1.6,0,3.04,0.95,3.68,2.43c0.42,0.98,0.43,2.07,0.03,3.06     c-0.4,0.99-1.16,1.77-2.14,2.19C89.99,97.58,89.46,97.69,88.92,97.69z"/></g><g><path d="M120.23,251.12h-0.03c-9.11,0-18.07-1.46-26.66-4.35c-8.28-2.79-16.06-6.84-23.13-12.06c-1.02-0.75-1.63-1.95-1.63-3.22     v-43.63c0-1.63,1.02-3.13,2.54-3.72l28.23-11.08c0.47-0.19,0.96-0.28,1.46-0.28c1.46,0,2.81,0.8,3.51,2.08l9.2,16.79l3.66-3.66     c0.75-0.76,1.76-1.17,2.83-1.17c1.01,0,1.97,0.37,2.71,1.06l3.31,3.05l9.83-16.22c0.98-1.62,3.12-2.35,4.89-1.65l28.22,11.08     c1.52,0.59,2.54,2.09,2.54,3.72v43.63c0,1.26-0.6,2.47-1.62,3.22c-7.08,5.22-14.86,9.27-23.14,12.06     C138.35,249.66,129.36,251.12,120.23,251.12z M76.78,229.44c12.83,8.95,27.85,13.68,43.43,13.68c15.63,0,30.67-4.73,43.5-13.68     v-38.85l-22.55-8.85l-10.62,17.52c-0.63,1.04-1.67,1.72-2.87,1.89c-1.18,0.17-2.39-0.21-3.27-1.02l-4.08-3.77l-4.71,4.72     c-0.88,0.88-2.17,1.31-3.4,1.13c-1.24-0.17-2.34-0.94-2.94-2.03L99.2,181.79l-22.42,8.8V229.44z"/></g><g><path d="M88.8,244.67c-2.21,0-4-1.79-4-4v-39.84c0-2.2,1.79-4,4-4c2.2,0,4,1.8,4,4v39.84C92.8,242.88,91,244.67,88.8,244.67z"/></g><g><path d="M151.7,244.67c-2.21,0-4-1.79-4-4v-39.84c0-2.2,1.79-4,4-4s4,1.8,4,4v39.84C155.7,242.88,153.91,244.67,151.7,244.67z"/></g><g><path d="M120.63,173.27c-4.4,0-8.7-1.54-12.45-4.44c-3.17-2.44-6-5.82-8.41-10.03c-4.12-7.27-6.6-16.09-6.63-23.6     c0.01-15.17,12.36-27.52,27.53-27.53l0,0l0,0l0,0c15.17,0.01,27.51,12.36,27.52,27.53c-0.02,5.4-1.34,11.66-3.73,17.64     c-2.85,7.03-6.65,12.41-11.28,15.99c-3.75,2.9-8.06,4.44-12.47,4.44H120.63z M120.67,115.67c-10.75,0.02-19.51,8.78-19.53,19.53     c-0.01,4.19,1.2,9.8,3.17,14.65c2.2,5.47,5.39,10.08,8.75,12.64c2.47,1.88,4.89,2.77,7.61,2.78c2.73-0.01,5.16-0.9,7.64-2.78     c2.29-1.76,4.48-4.4,6.33-7.66c3.85-6.69,5.58-14.86,5.55-19.63C140.17,124.45,131.41,115.69,120.67,115.67L120.67,115.67z"/></g><g><path d="M127.11,201.19c-1,0-1.97-0.38-2.71-1.06l-6.9-6.37c-1.5-1.39-1.72-3.67-0.52-5.31l13.89-18.9     c0.67-0.9,1.7-1.49,2.82-1.61c1.12-0.11,2.25,0.26,3.08,1.01l5.39,4.86c1.43,1.28,1.74,3.4,0.75,5.04l-12.37,20.42     c-0.63,1.03-1.67,1.71-2.87,1.88C127.49,201.18,127.3,201.19,127.11,201.19z M125.55,190.3l0.68,0.63l5.37-8.85L125.55,190.3z"/></g><g><path d="M112.77,202.25c-0.18,0-0.37-0.01-0.56-0.04c-1.24-0.17-2.34-0.94-2.94-2.03L97.5,178.7c-0.89-1.63-0.55-3.64,0.83-4.89     l5.39-4.86c0.84-0.75,1.97-1.12,3.09-1c1.13,0.11,2.15,0.7,2.82,1.61l13.81,18.9l0,0c1.15,1.57,0.98,3.8-0.4,5.19l-7.43,7.43     C114.86,201.83,113.83,202.25,112.77,202.25z M107.3,179.93l6.42,11.72l1.24-1.24L107.3,179.93z"/></g><g><path d="M254.54,392.34v-0.05l-0.02,0.05c-5.62,0-11.29-0.35-16.84-1.03c-1.06-0.13-2-0.66-2.66-1.51     c-0.66-0.84-0.95-1.89-0.82-2.95c0.27-2.16,2.28-3.74,4.46-3.479c5.23,0.64,10.56,0.97,15.86,0.97     c20.99,0,41.82-5.19,60.23-15.01c-4.601-10.641-6.931-21.891-6.931-33.431c0-20.859,7.7-40.859,21.7-56.31     c13.88-15.33,32.811-24.96,53.29-27.11c-0.88-32.92-14.22-63.89-37.54-87.22c-24.25-24.24-56.479-37.59-90.75-37.6     c-19.19,0-37.67,4.13-54.93,12.27c3,8.66,4.53,17.84,4.53,27.29c0,21.38-8.03,41.74-22.61,57.32     c-14.51,15.51-34.14,24.88-55.28,26.4c-0.08,1.93-0.12,3.59-0.12,5.06c0,50.229,29.58,96.12,75.36,116.91     c1.43,0.649,2.35,2.08,2.34,3.649c0,0.57-0.12,1.12-0.36,1.65c-0.64,1.42-2.07,2.34-3.64,2.34c-0.57,0-1.13-0.12-1.65-0.35     c-11.72-5.32-22.63-12.28-32.43-20.69c-9.75-8.36-18.26-18.03-25.3-28.75c-14.6-22.21-22.32-48.06-22.32-74.76     c0-3.11,0.15-6.2,0.31-9.09c0.11-2.1,1.78-3.73,3.88-3.79c41.4-1.16,73.82-34.5,73.82-75.9c0-9.73-1.77-19.09-5.26-27.81     c-0.78-1.93,0.04-4.11,1.91-5.05c9.36-4.74,19.29-8.4,29.5-10.87c10.51-2.54,21.36-3.83,32.24-3.83h0.01     c18.41,0,36.26,3.61,53.07,10.72c8.08,3.42,15.87,7.65,23.16,12.57c7.21,4.88,14,10.48,20.17,16.65     c6.17,6.17,11.77,12.96,16.649,20.18c4.931,7.29,9.16,15.08,12.57,23.16c7.12,16.81,10.72,34.66,10.72,53.06v0.16     c0,2.11-1.649,3.86-3.76,3.99c-39.979,2.381-71.29,35.66-71.28,75.75c0,11.62,2.591,22.851,7.711,33.391     c0.909,1.89,0.21,4.18-1.62,5.22c-10.03,5.73-20.79,10.16-31.96,13.17C278.45,390.77,266.53,392.34,254.54,392.34z      M218.59,387.41c-0.36,0-0.72-0.051-1.07-0.15h-0.01c-2.13-0.6-3.37-2.81-2.77-4.93c0.48-1.721,2.06-2.92,3.85-2.92     c0.36,0,0.73,0.05,1.08,0.149c2.12,0.601,3.37,2.811,2.77,4.931C221.96,386.21,220.37,387.41,218.59,387.41z"/></g><g><path d="M386.859,260H122.11c-2.21,0-4-1.79-4-4c0-2.2,1.79-4,4-4h264.75c2.21,0,4,1.8,4,4     C390.859,258.21,389.069,260,386.859,260z"/></g><g><path d="M254.52,392.34c-2.2,0-4-1.79-4-4V123.66c0-2.2,1.8-4,4-4c2.21,0,4,1.8,4,4v264.68     C258.52,390.55,256.73,392.34,254.52,392.34z"/></g><g><path d="M254.79,198.74c-19.38,0-39.07-1.83-58.52-5.43l0,0c-1.05-0.2-1.96-0.79-2.57-1.67c-0.6-0.88-0.83-1.94-0.63-2.99     c0.35-1.9,2-3.27,3.93-3.27c0.24,0,0.49,0.02,0.73,0.06c18.97,3.52,38.17,5.3,57.06,5.3c34.729,0,69.81-6.02,104.29-17.89     c0.42-0.15,0.859-0.22,1.3-0.22c1.71,0,3.22,1.08,3.78,2.7c0.72,2.08-0.391,4.36-2.48,5.08c-17.67,6.09-35.64,10.72-53.41,13.76     C290.56,197.2,272.569,198.74,254.79,198.74z"/></g><g><path d="M148.59,338.84c-1.71,0-3.23-1.09-3.78-2.71c-0.35-1.01-0.28-2.09,0.19-3.05c0.47-0.96,1.29-1.681,2.3-2.021     c17.8-6.069,35.84-10.68,53.64-13.72c17.83-3.04,35.9-4.59,53.71-4.59c19.63,0,39.52,1.88,59.12,5.569     c1.05,0.19,1.96,0.79,2.561,1.671c0.6,0.88,0.83,1.949,0.63,3c-0.36,1.88-2.01,3.25-3.93,3.25c-0.24,0-0.5-0.021-0.74-0.07     c-19.12-3.59-38.51-5.42-57.64-5.42c-34.71,0.01-69.96,6.02-104.76,17.87c0,0.01,0,0.01-0.01,0.01     C149.47,338.77,149.03,338.84,148.59,338.84z"/></g><g><path d="M254.52,392.34h-0.02c-8.52,0-16.82-2.71-24.68-8.05c-7.4-5.021-14.25-12.271-20.38-21.53     c-5.98-9.05-11.13-19.78-15.3-31.9c-4.21-12.22-7.34-25.619-9.31-39.81c-0.15-1.06,0.13-2.11,0.77-2.97     c0.65-0.851,1.59-1.4,2.64-1.54c2.17-0.3,4.22,1.26,4.51,3.41c2.76,20.159,8.14,39.02,15.58,54.54     c7.29,15.189,16.27,26.659,25.98,33.18c6.53,4.42,13.33,6.67,20.21,6.67c10.79,0,21.129-5.41,30.75-16.09     c9.49-10.55,17.58-25.8,23.38-44.07c0.86-6.39,2.521-12.74,4.931-18.88c3.319-15.58,5.01-32.17,5.01-49.3     c0-26.07-3.94-51.2-11.41-72.67c-7.07-20.39-17.27-36.79-28.71-46.18c-7.67-6.29-15.729-9.48-23.95-9.49     c-9.97,0.01-19.59,4.63-28.6,13.73c-8.87,8.97-16.71,22.11-22.67,37.99c-1.18,8.11-3.54,15.98-7,23.39     c-3.47,15.03-5.4,31.15-5.74,47.91c-0.04,2.19-1.88,3.95-4.08,3.91c-2.18-0.04-3.91-1.79-3.92-3.97c0-0.04,0-0.07,0-0.1     c0.36-17.46,2.39-34.28,6.04-49.98l0.28-0.81c3.29-6.92,5.49-14.3,6.56-21.91l0.22-0.84c3.18-8.52,6.86-16.32,10.96-23.19     c4.15-6.98,8.74-13.04,13.65-18.02c10.38-10.54,22.24-16.11,34.29-16.11h0.04c5.1,0,10.21,1,15.17,2.98     c4.771,1.9,9.42,4.7,13.83,8.34c8.52,7.02,16.14,16.98,22.65,29.62c13.14,25.56,20.38,59.44,20.39,95.4     c0,17.81-1.771,35.069-5.25,51.3l-0.19,0.64c-2.29,5.75-3.84,11.681-4.609,17.63l-0.15,0.69c-3.07,9.7-6.76,18.63-10.96,26.56     c-4.25,8.021-9.03,15.011-14.21,20.78C280.229,385.859,267.54,392.34,254.52,392.34z M186.86,274.59L186.86,274.59     c-2.12,0-3.87-1.65-3.99-3.771l0,0c-0.12-2.199,1.57-4.1,3.77-4.22c2.21-0.14,4.1,1.57,4.22,3.771     c0.12,2.199-1.57,4.09-3.77,4.22C187.01,274.59,186.94,274.59,186.86,274.59z"/></g><g><path d="M391.72,419.81c-11.32,0-22.3-2.22-32.64-6.6c-9.99-4.23-18.971-10.28-26.67-17.99c-7.71-7.71-13.761-16.68-17.99-26.67     c-4.38-10.34-6.601-21.33-6.601-32.65c0-6.659,0.78-13.29,2.33-19.699c1.5-6.24,3.73-12.311,6.62-18.04     c5.66-11.221,13.94-21.21,23.94-28.87c0.7-0.54,1.54-0.83,2.43-0.83c1.25,0,2.41,0.57,3.17,1.57c1.34,1.75,1.01,4.27-0.74,5.609     c-18.909,14.51-29.75,36.47-29.76,60.26c0.01,20.25,7.91,39.311,22.25,53.66c14.36,14.351,33.41,22.25,53.66,22.25     c20.271,0,39.34-7.899,53.68-22.25c14.33-14.34,22.221-33.399,22.221-53.66c0-20.279-7.891-39.35-22.221-53.68     S412,260,391.72,260c-3.87,0-7.77,0.3-11.58,0.88c0,0,0,0-0.01,0c-2.15,0.33-4.23-1.21-4.561-3.35c-0.029-0.2-0.05-0.4-0.05-0.61     c0-1.95,1.46-3.65,3.4-3.95c4.2-0.64,8.51-0.97,12.8-0.97c11.33,0,22.33,2.22,32.67,6.59c9.99,4.22,18.96,10.27,26.67,17.97     c7.7,7.71,13.75,16.681,17.971,26.67c4.369,10.351,6.59,21.34,6.59,32.67c0,11.32-2.221,22.311-6.59,32.65     c-4.221,9.99-10.271,18.96-17.971,26.67c-7.71,7.71-16.68,13.76-26.67,17.99C414.04,417.59,403.05,419.81,391.72,419.81z      M360.35,266.399c-1.609,0-3.05-0.96-3.68-2.43c-0.42-0.979-0.43-2.07-0.03-3.06c0.391-0.99,1.15-1.771,2.13-2.181     c0-0.01,0-0.01,0.011-0.01c0.5-0.22,1.029-0.32,1.569-0.32c1.601,0,3.05,0.95,3.681,2.431c0.859,2.02-0.08,4.38-2.11,5.25h-0.01     C361.41,266.29,360.89,266.399,360.35,266.399z"/></g><g><path d="M391.729,419.81l-0.02-0.05v0.05c-9.11,0-18.08-1.47-26.67-4.359c-8.271-2.78-16.05-6.841-23.12-12.051     c-1.021-0.75-1.63-1.96-1.63-3.22v-43.64c0-1.63,1.02-3.13,2.54-3.721l28.229-11.079c0.471-0.181,0.96-0.28,1.46-0.28     c1.46,0,2.811,0.8,3.521,2.09l9.13,16.8l3.729-3.689c0.761-0.74,1.761-1.16,2.82-1.16c1.01,0,1.98,0.39,2.73,1.08l3.229,3.02     l9.89-16.22c0.99-1.61,3.12-2.33,4.881-1.64l28.159,11.079c1.54,0.61,2.53,2.07,2.53,3.721v43.64c0,1.26-0.6,2.46-1.62,3.21     c-7.029,5.21-14.8,9.271-23.1,12.061C409.819,418.34,400.84,419.81,391.729,419.81z M348.29,398.13     c12.83,8.95,27.85,13.68,43.43,13.68c15.65,0,30.66-4.729,43.42-13.68v-38.86l-22.49-8.85l-10.689,17.54     c-0.63,1.03-1.68,1.72-2.87,1.88s-2.4-0.22-3.28-1.04l-4.01-3.75l-4.78,4.73c-0.88,0.88-2.17,1.3-3.399,1.119     c-1.24-0.18-2.33-0.949-2.931-2.05l-10-18.37l-22.399,8.79V398.13z"/></g><g><path d="M360.3,413.359c-2.21,0-4-1.8-4-4v-39.84c0-2.2,1.79-4,4-4s4,1.8,4,4v39.84C364.3,411.56,362.51,413.359,360.3,413.359z"/></g><g><path d="M423.21,413.359c-2.2,0-4-1.8-4-4v-39.84c0-2.2,1.8-4,4-4c2.21,0,4,1.8,4,4v39.84     C427.21,411.56,425.42,413.359,423.21,413.359z"/></g><g><path d="M392.12,341.95c-4.38,0-8.681-1.53-12.431-4.431c-3.17-2.439-6-5.819-8.409-10.04c-4.12-7.26-6.591-16.09-6.631-23.6     c0.011-7.37,2.881-14.29,8.08-19.47c5.19-5.181,12.09-8.04,19.44-8.051l0,0l0,0l0,0l0,0c7.35,0.011,14.26,2.87,19.439,8.051     c5.2,5.18,8.08,12.1,8.091,19.47c-0.011,5.4-1.351,11.66-3.761,17.65c-2.859,7.02-6.649,12.399-11.279,15.989     c-3.75,2.9-8.051,4.431-12.44,4.431H392.12z M392.17,284.359c-10.76,0-19.521,8.761-19.521,19.521c-0.01,4.2,1.2,9.81,3.17,14.65     c2.2,5.479,5.391,10.09,8.74,12.649c2.48,1.88,4.9,2.76,7.61,2.78c2.72-0.021,5.13-0.9,7.61-2.78c2.3-1.76,4.489-4.41,6.35-7.66     c3.87-6.71,5.6-14.88,5.57-19.64C411.7,293.12,402.939,284.359,392.17,284.359L392.17,284.359z"/></g><g><path d="M398.54,369.88c-1.01,0-1.98-0.38-2.73-1.08l-6.819-6.37c-1.48-1.38-1.7-3.66-0.5-5.29l13.89-18.97     c0.68-0.93,1.689-1.5,2.83-1.62c1.13-0.11,2.26,0.27,3.1,1.03l5.38,4.939c1.41,1.28,1.71,3.4,0.71,5.03l-12.439,20.41     c-0.63,1.03-1.68,1.72-2.87,1.88C398.91,369.87,398.729,369.88,398.54,369.88z M397.04,359l0.649,0.6l5.37-8.819L397.04,359z"/></g><g><path d="M384.2,370.939c-0.19,0-0.391-0.01-0.58-0.04c-1.24-0.18-2.34-0.949-2.931-2.05l-11.68-21.479     c-0.88-1.61-0.55-3.61,0.81-4.851l5.381-4.93c0.84-0.771,1.97-1.15,3.1-1.04c1.13,0.12,2.17,0.71,2.84,1.63l13.811,18.97l0,0     c1.17,1.61,1,3.801-0.42,5.2l-7.511,7.431C386.27,370.52,385.25,370.939,384.2,370.939z M378.64,348.34l6.53,12.01l1.29-1.27     L378.64,348.34z"/></g><g><path d="M254.52,416.39c-21.65,0-42.65-4.24-62.42-12.6c-9.51-4.021-18.67-9-27.25-14.79c-8.49-5.74-16.48-12.33-23.74-19.59     c-7.25-7.261-13.84-15.25-19.58-23.74c-5.8-8.57-10.77-17.74-14.79-27.24c-8.37-19.78-12.61-40.78-12.61-62.43     c0-4.25,0.16-8.46,0.47-12.52c0.16-2.17,2.11-3.85,4.29-3.68c2.19,0.16,3.85,2.09,3.68,4.28c-0.29,3.87-0.44,7.88-0.44,11.92     c0,40.689,15.86,78.96,44.64,107.75c28.79,28.79,67.06,44.64,107.75,44.64c2.21,0,4,1.8,4,4     C258.52,414.6,256.73,416.39,254.52,416.39z"/></g><g><path d="M410.99,262.35c-2.21,0-4-1.79-4-4c0-40.84-15.881-79.52-44.71-108.91c-28.94-29.5-67.211-45.75-107.74-45.76     c-0.01,0.01-0.01,0.01-0.02,0.01c-2.2,0-4-1.8-4-4c0-2.21,1.8-4,4-4c21.629,0,42.65,4.37,62.47,12.98     c9.5,4.12,18.67,9.22,27.26,15.15c8.49,5.87,16.479,12.6,23.74,20.01c7.26,7.4,13.85,15.52,19.59,24.15     c5.79,8.71,10.77,18,14.79,27.61c8.37,19.99,12.609,41.1,12.62,62.76C414.99,260.56,413.189,262.35,410.99,262.35z"/></g><g><path d="M267.2,118.63c-1.181,0-2.29-0.51-3.051-1.41l-12.68-14.95c-1.33-1.58-1.23-3.95,0.23-5.41l13.65-13.67     c1.51-1.51,4.15-1.51,5.66,0c1.56,1.56,1.56,4.1,0,5.66l-11.05,11.06l10.29,12.13c0.689,0.82,1.02,1.86,0.939,2.92     c-0.09,1.06-0.59,2.03-1.409,2.72C269.06,118.29,268.149,118.63,267.2,118.63z"/></g><g><path d="M240.86,429.979c-1.07,0-2.08-0.42-2.83-1.18c-1.56-1.57-1.55-4.1,0.01-5.66l11.04-10.97l-10.35-12.13     c-1.43-1.681-1.23-4.21,0.45-5.641c0.72-0.609,1.64-0.949,2.59-0.949c1.18,0,2.29,0.51,3.05,1.399l12.75,14.95     c1.341,1.58,1.25,3.96-0.229,5.43l-13.66,13.58C242.93,429.56,241.93,429.979,240.86,429.979z"/></g></g></g>
</svg>